<svg t="1568881597898" class="icon" viewBox="0 0 1024 1024" version="1.1" xmlns="http://www.w3.org/2000/svg" p-id="4306" width="200" height="200"><path d="M32 545.344c0 49.408 12.992 88.32 38.912 116.672 25.92 28.224 61.568 42.368 106.88 42.368 36.608 0 66.688-10.496 90.112-31.36s38.016-48 43.712-81.344H245.44c-4.352 15.744-9.856 27.648-16.448 35.52-11.968 14.656-29.376 22.016-52.224 22.016a69.12 69.12 0 0 1-55.04-25.6c-14.464-17.152-21.696-42.88-21.696-77.184s6.848-60.864 20.544-79.616 32.384-28.16 56.064-28.16c23.296 0 40.896 6.656 52.736 19.968 6.656 7.424 12.032 18.496 16.32 33.216h66.56c-1.024-19.136-8.256-38.144-21.824-57.088-24.512-33.792-63.296-50.688-116.288-50.688-39.616 0-72.256 12.608-97.92 37.824C46.72 450.816 32 491.968 32 545.344zM505.408 443.072c13.696 0 24 1.728 30.848 5.376 12.096 6.4 18.24 18.816 18.24 37.376 0 17.152-6.272 28.608-18.88 34.432-7.104 3.328-17.728 4.992-32 4.992h-71.68V443.072h73.472z m13.824-53.184h-152.32v305.984h65.024V575.872h65.024c18.56 0 31.168 3.264 37.888 9.792 6.72 6.528 10.24 19.52 10.496 38.976l0.512 28.416a143.36 143.36 0 0 0 7.104 42.752h73.344v-7.616a25.6 25.6 0 0 1-12.224-17.408 151.936 151.936 0 0 1-1.728-28.48v-20.48c0-21.504-3.008-37.44-9.152-47.872s-16.576-18.496-31.168-24.192c17.472-5.824 30.144-15.744 37.76-29.824a88.96 88.96 0 0 0 11.52-42.88c0-12.032-1.984-22.72-5.888-32.192a96.96 96.96 0 0 0-16.064-25.728 78.464 78.464 0 0 0-29.888-21.376c-11.712-4.8-28.48-7.424-50.24-7.872zM838.72 630.528l-57.984-240.64h-96.896v305.984h62.016V488.96c0-6.016 0-14.336-0.128-25.088l-0.256-24.832 59.904 256.832h64.768l60.352-256.832-0.256 24.832-0.256 25.088v206.912h62.016V389.888h-95.744l-57.536 240.64z" p-id="4307"></path><path d="M142.656 320A416.128 416.128 0 0 1 881.28 320h70.528C877.632 150.528 708.736 32 512 32S146.304 150.528 72.128 320h70.528zM840 768a415.488 415.488 0 0 1-656 0H106.432a479.04 479.04 0 0 0 811.072 0h-77.504z" p-id="4308"></path></svg>