<svg t="1568878836936" class="icon" viewBox="0 0 1024 1024" version="1.1" xmlns="http://www.w3.org/2000/svg" p-id="3679" width="200" height="200"><path d="M374.4 113.777778h201.955556c25.6 0 45.511111 19.911111 45.511111 45.511111 0 28.444444-17.066667 45.511111-45.511111 45.511111H371.555556c-25.6 0-42.666667-19.911111-42.666667-45.511111 2.844444-25.6 19.911111-45.511111 45.511111-45.511111zM215.111111 176.355556s39.822222 8.533333 39.822222 14.222222c0 39.822222 31.288889 79.644444 68.266667 79.644444h307.2c36.977778 0 68.266667-36.977778 68.266667-76.8 0-5.688889 36.977778-14.222222 36.977777-14.222222H798.222222c76.8-2.844444 99.555556 42.666667 99.555556 108.088889v631.466667c0 65.422222-28.444444 105.244444-108.088889 105.244444H161.066667c-79.644444 0-119.466667-31.288889-119.466667-105.244444V287.288889c0-62.577778 36.977778-108.088889 113.777778-108.088889H215.111111v-2.844444z m42.666667 625.777777h438.044444c14.222222 0 34.133333-17.066667 34.133334-34.133333 0-14.222222-11.377778-28.444444-31.288889-28.444444H263.466667c-14.222222 0-31.288889 11.377778-31.288889 28.444444-2.844444 14.222222 11.377778 34.133333 25.6 34.133333z m0-167.822222h435.2c14.222222 0 28.444444-14.222222 28.444444-34.133333 0-14.222222-11.377778-31.288889-31.288889-31.288889H254.933333c-14.222222 0-31.288889 14.222222-31.288889 31.288889s19.911111 34.133333 34.133334 34.133333z m0-170.666667h435.2c14.222222 0 28.444444-14.222222 28.444444-34.133333 0-14.222222-11.377778-31.288889-31.288889-31.288889H254.933333c-14.222222 0-31.288889 14.222222-31.288889 31.288889s19.911111 34.133333 34.133334 34.133333z" p-id="3680"></path></svg>